<?xml version="1.0" encoding="UTF-8" standalone="no"?>
<!-- Creator: CorelDRAW X7 -->

<svg
   xmlns:dc="http://purl.org/dc/elements/1.1/"
   xmlns:cc="http://creativecommons.org/ns#"
   xmlns:rdf="http://www.w3.org/1999/02/22-rdf-syntax-ns#"
   xmlns:svg="http://www.w3.org/2000/svg"
   xmlns="http://www.w3.org/2000/svg"
   xmlns:sodipodi="http://sodipodi.sourceforge.net/DTD/sodipodi-0.dtd"
   xmlns:inkscape="http://www.inkscape.org/namespaces/inkscape"
   xml:space="preserve"
   width="89.179001"
   height="129.27499"
   version="1.1"
   style="clip-rule:evenodd;fill-rule:evenodd;image-rendering:optimizeQuality;shape-rendering:geometricPrecision;text-rendering:geometricPrecision"
   viewBox="0 0 928.95594 1346.66"
   id="svg27"
   sodipodi:docname="logo (no-text).svg"
   inkscape:version="0.92.2 (5c3e80d, 2017-08-06)"><metadata
     id="metadata31"><rdf:RDF><cc:Work
         rdf:about=""><dc:format>image/svg+xml</dc:format><dc:type
           rdf:resource="http://purl.org/dc/dcmitype/StillImage" /><dc:title></dc:title></cc:Work></rdf:RDF></metadata><sodipodi:namedview
     pagecolor="#ffffff"
     bordercolor="#666666"
     borderopacity="1"
     objecttolerance="10"
     gridtolerance="10"
     guidetolerance="10"
     inkscape:pageopacity="0"
     inkscape:pageshadow="2"
     inkscape:window-width="1600"
     inkscape:window-height="847"
     id="namedview29"
     showgrid="false"
     units="px"
     inkscape:zoom="0.25300254"
     inkscape:cx="561.25919"
     inkscape:cy="396.85057"
     inkscape:window-x="-8"
     inkscape:window-y="-8"
     inkscape:window-maximized="1"
     inkscape:current-layer="svg27" /><defs
     id="defs4"><style
       type="text/css"
       id="style2"><![CDATA[
    .fil0 {fill:#004D40}
    .fil3 {fill:#009688}
    .fil1 {fill:#E65100}
    .fil2 {fill:#FF9800}
    .fil4 {fill:#009688;fill-rule:nonzero}
   ]]></style></defs><g
     id="Layer_x0020_1"
     transform="matrix(1.0000018,0,0,1,-6273.0453,-5921.338)"><metadata
       id="CorelCorpID_0Corel-Layer" /><g
       id="_2188433377968"><polygon
         class="fil0"
         points="6375,7136 6289,7052 6377,6963 "
         id="polygon7"
         style="fill:#004d40" /><polygon
         class="fil1"
         points="6526,6876 6614,6787 6687,6858 6599,6947 "
         id="polygon9"
         style="fill:#e65100" /><polygon
         class="fil1"
         points="6306,6656 6394,6567 6467,6638 6379,6727 "
         id="polygon11"
         style="fill:#e65100" /><polygon
         class="fil0"
         points="6521,6499 6609,6410 6681,6481 6594,6570 "
         id="polygon13"
         style="fill:#004d40" /><polygon
         class="fil0"
         points="6302,6280 6328,6129 6462,6262 6375,6351 "
         id="polygon15"
         style="fill:#004d40" /><path
         class="fil2"
         d="m 6356,6427 c 76,-77 211,-208 342,-342 30,29 25,153 -48,227 -75,77 -212,210 -344,344 -29,-29 -22,-154 50,-229 z"
         id="path17"
         inkscape:connector-curvature="0"
         style="fill:#ff9800" /><path
         class="fil3"
         d="m 6339,6824 c 76,-77 211,-209 342,-343 30,30 25,153 -48,227 -75,77 -212,211 -344,344 -29,-29 -22,-154 50,-228 z"
         id="path19"
         inkscape:connector-curvature="0"
         style="fill:#009688" /><path
         class="fil2"
         d="m 6506,7039 c 76,-77 49,-47 181,-180 30,29 24,152 -48,227 -76,76 -51,48 -182,182 -30,-30 -23,-154 49,-229 z"
         id="path21"
         inkscape:connector-curvature="0"
         style="fill:#ff9800" /><path
         class="fil4"
         d="m 7075,6604 c 36,25 67,57 91,97 24,39 36,88 36,145 0,58 -13,108 -38,151 -25,43 -58,78 -99,105 -82,57 -187,83 -286,83 -48,0 -172,-52 -65,-70 190,0 270,-121 270,-301 0,-74 -25,-134 -74,-181 -64,-61 -144,-92 -146,-111 -6,-50 64,-66 99,-107 48,-56 58,-118 58,-190 0,-69 -19,-123 -57,-162 -214,-165 -545,33 -562,217 -59,-116 42,-301 273,-347 222,-43 457,39 525,146 22,36 33,79 33,129 0,82 -28,153 -90,206 -58,51 -133,82 -206,97 v 9 c 35,3 75,12 120,26 44,14 84,33 118,58 z"
         id="path23"
         inkscape:connector-curvature="0"
         style="fill:#009688;fill-rule:nonzero" /></g></g></svg>