<?xml version="1.0" encoding="UTF-8" standalone="no"?>
<!-- Creator: CorelDRAW X7 -->

<svg
   xmlns:dc="http://purl.org/dc/elements/1.1/"
   xmlns:cc="http://creativecommons.org/ns#"
   xmlns:rdf="http://www.w3.org/1999/02/22-rdf-syntax-ns#"
   xmlns:svg="http://www.w3.org/2000/svg"
   xmlns="http://www.w3.org/2000/svg"
   xmlns:sodipodi="http://sodipodi.sourceforge.net/DTD/sodipodi-0.dtd"
   xmlns:inkscape="http://www.inkscape.org/namespaces/inkscape"
   xml:space="preserve"
   width="454.638"
   height="129.27499"
   version="1.1"
   style="clip-rule:evenodd;fill-rule:evenodd;image-rendering:optimizeQuality;shape-rendering:geometricPrecision;text-rendering:geometricPrecision"
   viewBox="0 0 4735.8534 1346.66"
   id="svg53"
   sodipodi:docname="ibio.svg"
   inkscape:version="0.92.2 (5c3e80d, 2017-08-06)"><metadata
     id="metadata57"><rdf:RDF><cc:Work
         rdf:about=""><dc:format>image/svg+xml</dc:format><dc:type
           rdf:resource="http://purl.org/dc/dcmitype/StillImage" /><dc:title></dc:title></cc:Work></rdf:RDF></metadata><sodipodi:namedview
     pagecolor="#ffffff"
     bordercolor="#666666"
     borderopacity="1"
     objecttolerance="10"
     gridtolerance="10"
     guidetolerance="10"
     inkscape:pageopacity="0"
     inkscape:pageshadow="2"
     inkscape:window-width="1600"
     inkscape:window-height="847"
     id="namedview55"
     showgrid="false"
     units="px"
     inkscape:zoom="1.0120102"
     inkscape:cx="342.34877"
     inkscape:cy="107.98449"
     inkscape:window-x="-8"
     inkscape:window-y="-8"
     inkscape:window-maximized="1"
     inkscape:current-layer="svg53" /><defs
     id="defs4"><style
       type="text/css"
       id="style2"><![CDATA[
    .fil0 {fill:#004D40}
    .fil3 {fill:#009688}
    .fil1 {fill:#E65100}
    .fil2 {fill:#FF9800}
    .fil5 {fill:#373435;fill-rule:nonzero}
    .fil6 {fill:#201E1E;fill-rule:nonzero}
    .fil4 {fill:#009688;fill-rule:nonzero}
   ]]></style></defs><g
     id="Layer_x0020_1"
     transform="matrix(0.99999894,0,0,1,-6273.0753,-5921.338)"><metadata
       id="CorelCorpID_0Corel-Layer" /><g
       id="_2190279575712"><polygon
         class="fil0"
         points="6377,6963 6375,7136 6289,7052 "
         id="polygon7"
         style="fill:#004d40" /><polygon
         class="fil1"
         points="6687,6858 6599,6947 6526,6876 6614,6787 "
         id="polygon9"
         style="fill:#e65100" /><polygon
         class="fil1"
         points="6467,6638 6379,6727 6306,6656 6394,6567 "
         id="polygon11"
         style="fill:#e65100" /><polygon
         class="fil0"
         points="6681,6481 6594,6570 6521,6499 6609,6410 "
         id="polygon13"
         style="fill:#004d40" /><polygon
         class="fil0"
         points="6462,6262 6375,6351 6302,6280 6328,6129 "
         id="polygon15"
         style="fill:#004d40" /><path
         class="fil2"
         d="m 6356,6427 c 76,-77 211,-208 342,-342 30,29 25,153 -48,227 -75,77 -212,210 -344,344 -29,-29 -22,-154 50,-229 z"
         id="path17"
         inkscape:connector-curvature="0"
         style="fill:#ff9800" /><path
         class="fil3"
         d="m 6339,6824 c 76,-77 211,-209 342,-343 30,30 25,153 -48,227 -75,77 -212,211 -344,344 -29,-29 -22,-154 50,-228 z"
         id="path19"
         inkscape:connector-curvature="0"
         style="fill:#009688" /><path
         class="fil2"
         d="m 6506,7039 c 76,-77 49,-47 181,-180 30,29 24,152 -48,227 -76,76 -51,48 -182,182 -30,-30 -23,-154 49,-229 z"
         id="path21"
         inkscape:connector-curvature="0"
         style="fill:#ff9800" /><path
         class="fil4"
         d="m 7075,6604 c 36,25 67,57 91,97 24,39 36,88 36,145 0,58 -13,108 -38,151 -25,43 -58,78 -99,105 -82,57 -187,83 -286,83 -48,0 -172,-52 -65,-70 190,0 270,-121 270,-301 0,-74 -25,-134 -74,-181 -64,-61 -144,-92 -146,-111 -6,-50 64,-66 99,-107 48,-56 58,-118 58,-190 0,-69 -19,-123 -57,-162 -214,-165 -545,33 -562,217 -59,-116 42,-301 273,-347 222,-43 457,39 525,146 22,36 33,79 33,129 0,82 -28,153 -90,206 -58,51 -133,82 -206,97 v 9 c 35,3 75,12 120,26 44,14 84,33 118,58 z"
         id="path23"
         inkscape:connector-curvature="0"
         style="fill:#009688;fill-rule:nonzero" /></g><g
       id="_2190279604096"><path
         class="fil5"
         d="m 7574,6766 v 188 h 115 c 42,0 73,-8 92,-22 20,-15 29,-39 29,-70 0,-33 -11,-57 -32,-73 -22,-15 -56,-23 -103,-23 z m -86,267 v -605 h 177 c 60,0 107,14 139,41 33,27 50,66 50,117 0,31 -8,57 -22,77 -15,21 -38,37 -68,48 44,11 78,30 102,57 24,27 36,61 36,100 0,50 -18,90 -55,120 -36,30 -86,45 -149,45 z m 86,-346 h 58 c 44,0 77,-8 98,-23 22,-16 32,-40 32,-73 0,-30 -8,-51 -25,-65 -17,-13 -44,-20 -81,-20 h -82 z"
         id="path26"
         inkscape:connector-curvature="0"
         style="fill:#373435;fill-rule:nonzero" /><path
         id="1"
         class="fil5"
         d="m 7984,6516 c 0,-13 4,-24 13,-33 9,-8 19,-13 32,-13 13,0 24,5 32,13 9,9 13,20 13,33 0,12 -4,23 -13,32 -8,8 -19,13 -32,13 -13,0 -23,-5 -32,-13 -9,-9 -13,-20 -13,-32 z m 5,517 v -400 h 80 v 400 z"
         inkscape:connector-curvature="0"
         style="fill:#373435;fill-rule:nonzero" /><path
         id="2"
         class="fil5"
         d="m 8231,6832 c 0,38 13,69 38,96 25,26 55,39 90,39 35,0 66,-13 91,-39 25,-27 38,-59 38,-96 0,-36 -13,-68 -38,-94 -25,-26 -55,-39 -91,-39 -35,0 -65,13 -90,39 -25,26 -38,58 -38,94 z m -83,0 c 0,-57 20,-107 62,-147 41,-40 91,-61 150,-61 28,0 55,6 81,16 25,11 48,26 68,45 21,21 36,44 47,69 11,25 16,51 16,78 0,28 -6,55 -17,80 -11,26 -26,49 -46,69 -20,19 -43,34 -68,44 -25,11 -52,16 -81,16 -59,0 -109,-21 -150,-61 -42,-40 -62,-90 -62,-148 z"
         inkscape:connector-curvature="0"
         style="fill:#373435;fill-rule:nonzero" /><polygon
         id="3"
         class="fil5"
         points="8746,6561 8746,7033 8661,7033 8661,6428 8737,6428 8954,6682 9172,6428 9248,6428 9248,7033 9163,7033 9163,6561 8954,6804 "
         style="fill:#373435;fill-rule:nonzero" /><polygon
         id="4"
         class="fil5"
         points="9466,6428 9466,7033 9380,7033 9380,6428 "
         style="fill:#373435;fill-rule:nonzero" /><path
         id="5"
         class="fil5"
         d="m 10114,6889 v 98 c -36,18 -72,32 -109,42 -36,9 -73,14 -109,14 -35,0 -68,-4 -99,-13 -31,-10 -61,-23 -89,-41 -45,-29 -80,-67 -105,-112 -25,-46 -37,-96 -37,-149 0,-41 8,-80 24,-119 17,-38 40,-71 70,-100 33,-30 69,-53 109,-68 40,-15 84,-23 133,-23 34,0 68,4 101,12 34,8 69,20 105,37 v 94 c -38,-21 -74,-36 -108,-47 -33,-9 -66,-14 -98,-14 -71,0 -129,22 -175,66 -46,44 -69,99 -69,165 0,65 22,120 68,164 45,44 102,66 171,66 35,0 71,-6 107,-18 36,-12 72,-30 110,-54 z"
         inkscape:connector-curvature="0"
         style="fill:#373435;fill-rule:nonzero" /><g
         id="g39"><path
           class="fil6"
           d="m 7618,6152 v 109 c 0,35 -23,55 -65,55 -42,0 -65,-20 -65,-55 v -109 c 0,-3 3,-5 10,-5 h 1 c 7,0 10,2 10,5 v 110 c 0,21 19,36 44,36 26,0 44,-15 44,-36 v -110 c 0,-3 3,-5 10,-5 h 2 c 7,0 9,2 9,5 z"
           id="path33"
           inkscape:connector-curvature="0"
           style="fill:#201e1e;fill-rule:nonzero" /><path
           class="fil6"
           d="m 7938,6161 c 0,4 -5,14 -8,14 -3,0 -14,-11 -37,-11 -43,0 -57,25 -57,66 0,37 11,68 54,68 12,0 24,-1 31,-3 v -48 h -28 c -3,0 -5,-3 -5,-8 v -3 c 0,-5 2,-8 5,-8 h 42 c 5,0 7,3 7,8 v 63 c 0,13 -26,17 -53,17 -48,0 -74,-27 -74,-83 0,-60 27,-87 77,-87 24,0 46,8 46,15 z"
           id="path35"
           inkscape:connector-curvature="0"
           style="fill:#201e1e;fill-rule:nonzero" /><path
           class="fil6"
           d="m 8305,6152 v 158 c 0,3 -3,5 -10,5 h -2 c -6,0 -9,-2 -9,-5 v -129 l -1,1 -47,83 -6,3 h -9 l -5,-3 -49,-84 v -1 130 c 0,3 -3,5 -10,5 h -1 c -7,0 -10,-2 -10,-5 v -158 c 0,-3 3,-5 10,-5 h 8 c 6,0 9,2 10,4 l 45,79 7,15 6,-14 45,-80 c 1,-2 4,-4 10,-4 h 8 c 7,0 10,2 10,5 z"
           id="path37"
           inkscape:connector-curvature="0"
           style="fill:#201e1e;fill-rule:nonzero" /></g><g
         id="g49"><path
           class="fil6"
           d="m 10252,6861 c 0,-52 49,-68 93,-68 45,0 94,19 94,71 0,50 -50,70 -93,70 -36,1 -77,9 -77,51 v 37 h 168 v 18 h -187 v -55 c 0,-54 50,-68 95,-68 32,0 77,-11 77,-53 0,-42 -43,-54 -77,-54 -32,0 -75,11 -75,51 z"
           id="path41"
           inkscape:connector-curvature="0"
           style="fill:#201e1e;fill-rule:nonzero" /><path
           class="fil6"
           d="m 10497,6947 c 0,105 150,105 150,0 v -58 c 0,-104 -150,-104 -150,0 z m -18,-58 c 0,-128 186,-127 186,0 v 58 c 0,128 -186,128 -186,0 z"
           id="path43"
           inkscape:connector-curvature="0"
           style="fill:#201e1e;fill-rule:nonzero" /><polygon
           class="fil6"
           points="10689,7024 10730,7024 10730,6813 10689,6813 10689,6796 10749,6796 10749,7024 10790,7024 10790,7040 10689,7040 "
           id="polygon45"
           style="fill:#201e1e;fill-rule:nonzero" /><path
           class="fil6"
           d="m 10919,6795 c 24,0 43,5 57,16 14,11 21,26 21,45 0,13 -4,24 -11,33 -7,9 -17,16 -30,21 17,5 30,13 39,23 9,11 14,24 14,40 0,21 -8,38 -24,51 -16,12 -38,19 -66,19 -27,0 -49,-7 -65,-19 -16,-12 -24,-29 -24,-51 0,-15 5,-29 14,-40 9,-10 23,-18 39,-23 -13,-5 -23,-12 -31,-21 -7,-10 -11,-21 -11,-34 0,-18 7,-33 21,-44 14,-11 33,-16 57,-16 z m 0,20 c -18,0 -34,4 -44,12 -10,8 -13,17 -13,30 0,14 3,23 14,31 10,8 26,12 43,12 18,0 34,-4 44,-12 10,-8 13,-17 13,-31 0,-13 -3,-22 -13,-30 -10,-8 -26,-12 -44,-12 z m 0,108 c -21,0 -39,4 -51,13 -12,9 -17,21 -17,36 0,17 5,28 17,37 12,9 30,16 51,16 21,0 39,-7 51,-16 12,-9 18,-20 18,-36 0,-16 -6,-28 -18,-37 -12,-9 -30,-13 -51,-13 z"
           id="path47"
           inkscape:connector-curvature="0"
           style="fill:#201e1e;fill-rule:nonzero" /></g></g></g></svg>